<svg width="18" height="18" viewBox="0 0 18 18" fill="none" xmlns="http://www.w3.org/2000/svg">
<mask id="mask0_746_8587" style="mask-type:alpha" maskUnits="userSpaceOnUse" x="0" y="0" width="18" height="18">
<rect x="0.582031" y="0.816406" width="17.025" height="17.025" fill="#D9D9D9"/>
</mask>
<g mask="url(#mask0_746_8587)">
<path d="M8.73945 16.4219C7.65174 16.4219 6.72956 16.0435 5.97289 15.2869C5.21622 14.5302 4.83789 13.608 4.83789 12.5203V5.07188C4.83789 4.29156 5.11573 3.62357 5.67141 3.06789C6.22708 2.51221 6.89508 2.23438 7.67539 2.23438C8.4557 2.23438 9.1237 2.51221 9.67938 3.06789C10.2351 3.62357 10.5129 4.29156 10.5129 5.07188V11.8109C10.5129 12.3075 10.3415 12.7272 9.99859 13.0701C9.65573 13.4129 9.23602 13.5844 8.73945 13.5844C8.24289 13.5844 7.82318 13.4129 7.48031 13.0701C7.13745 12.7272 6.96602 12.3075 6.96602 11.8109V5.07188H8.03008V11.8109C8.03008 12.0119 8.09806 12.1804 8.23402 12.3164C8.36999 12.4523 8.53846 12.5203 8.73945 12.5203C8.94044 12.5203 9.10892 12.4523 9.24488 12.3164C9.38085 12.1804 9.44883 12.0119 9.44883 11.8109V5.07188C9.44883 4.57531 9.2774 4.1556 8.93453 3.81273C8.59167 3.46987 8.17195 3.29844 7.67539 3.29844C7.17883 3.29844 6.75911 3.46987 6.41625 3.81273C6.07339 4.1556 5.90195 4.57531 5.90195 5.07188V12.5203C5.90195 13.3006 6.17979 13.9686 6.73547 14.5243C7.29115 15.08 7.95914 15.3578 8.73945 15.3578C9.51977 15.3578 10.1878 15.08 10.7434 14.5243C11.2991 13.9686 11.577 13.3006 11.577 12.5203V5.07188H12.641V12.5203C12.641 13.608 12.2627 14.5302 11.506 15.2869C10.7493 16.0435 9.82716 16.4219 8.73945 16.4219Z" fill="white"/>
</g>
</svg>
