<svg width="26" height="26" viewBox="0 0 26 26" fill="none" xmlns="http://www.w3.org/2000/svg">
<path d="M23.5185 9.43517C24.8727 8.081 24.2552 6.49933 23.5185 5.73017L20.2685 2.48017C18.9035 1.126 17.3327 1.7435 16.5635 2.48017L14.7218 4.33267H11.916C9.85767 4.33267 8.666 5.416 8.05933 6.66183L3.24933 11.4718V15.8052L2.48017 16.5635C1.126 17.9285 1.7435 19.4993 2.48017 20.2685L5.73017 23.5185C6.31517 24.1035 6.9435 24.3202 7.53933 24.3202C8.3085 24.3202 9.01267 23.941 9.43517 23.5185L12.3602 20.5827H16.2493C18.091 20.5827 19.0227 19.4343 19.3585 18.3077C20.5827 17.9827 21.2543 17.051 21.5252 16.141C23.2043 15.7077 23.8327 14.1152 23.8327 12.9993V9.74933H23.1935L23.5185 9.43517ZM21.666 12.9993C21.666 13.4868 21.4602 14.0827 20.5827 14.0827H19.4993V15.166C19.4993 15.6535 19.2935 16.2493 18.416 16.2493H17.3327V17.3327C17.3327 17.8202 17.1268 18.416 16.2493 18.416H11.4718L7.9185 21.9693C7.58267 22.2835 7.38767 22.0993 7.2685 21.98 02L4.02933 18.7518C3.71517 18.416 3.89933 18.221 4.0185 18.1018L5.416 16.6935V12.3602L7.58267 10.1935V11.916C7.58267 13.2268 8.44933 15.166 10.8327 15.166C13.216 15.166 14.0827 13.2268 14.0827 11.916H21.666V12.9993ZM21.9802 7.89683L20.1385 9.74933H11.916V11.916C11.916 12.4035 11.7102 12.9993 10.8327 12.9993C9.95517 12.9993 9.74933 12.4035 9.74933 11.916V8.666C9.74933 8.16767 9.9335 6.49933 11.916 6.49933H15.6102L18.0802 4.02933C18.416 3.71517 18.611 3.89933 18.7302 4.0185L21.9693 7.24683C22.2835 7.58267 22.0993 7.77767 21.9802 7.89683Z" fill="black"/>
</svg>
